# xmcd
#
# Track frame offsets: 
#        150
#        17394
#        36620
#        51381
#        66196
#        80959
#        98316
#        112613
#        127931
#        141279
#        155461
#        168661
#
# Disc length: 2440 seconds
#
# Revision: 0
# Processed by: cddbd v1.5.1PL2 Copyright (c) Steve Scherf et al.
# Submitted via: ExactAudioCopy v0.95b3
#
DISCID=9a09860c
DTITLE=Orawee Sujjanon - Ka kruan muang Vol 4
DYEAR=1997
DGENRE=Folk
TTITLE0=01. Kum ta lang karn kong hua jai (3:50)
TTITLE1=02. Loong per (4:16)
TTITLE2=03. Sao sieng hai (3:17)
TTITLE3=04. Kuen kum ruk (3:17)
TTITLE4=05. Fon nao sao kruan (3:17)
TTITLE5=06. Koo lab vieng ping (3:51)
TTITLE6=07. Mae sai (3:11)
TTITLE7=08. Jeb poe leaw (3:24)
TTITLE8=09. Sai num mai lai klub (2:58)
TTITLE9=10. Fung hua jai (3:09)
TTITLE10=11. Ruk krueng tang (2:56)
TTITLE11=12. Hak chun kard tur (3:12)
EXTD=
EXTT0=
EXTT1=
EXTT2=
EXTT3=
EXTT4=
EXTT5=
EXTT6=
EXTT7=
EXTT8=
EXTT9=
EXTT10=
EXTT11=
PLAYORDER=
